<svg xmlns="http://www.w3.org/2000/svg" viewBox="0 0 64 64" fill="none">
  <defs>
    <linearGradient id="bgGrad" x1="0%" y1="0%" x2="100%" y2="100%">
      <stop offset="0%" style="stop-color:#334155;stop-opacity:1" />
      <stop offset="100%" style="stop-color:#1e293b;stop-opacity:1" />
    </linearGradient>
    <linearGradient id="accentGrad" x1="0%" y1="0%" x2="100%" y2="100%">
      <stop offset="0%" style="stop-color:#22d3ee;stop-opacity:1" />
      <stop offset="100%" style="stop-color:#06b6d4;stop-opacity:1" />
    </linearGradient>
    <linearGradient id="snowGrad" x1="0%" y1="0%" x2="100%" y2="100%">
      <stop offset="0%" style="stop-color:#ffffff;stop-opacity:1" />
      <stop offset="100%" style="stop-color:#e2e8f0;stop-opacity:1" />
    </linearGradient>
  </defs>
  <!-- Background rounded square -->
  <rect x="4" y="4" width="56" height="56" rx="12" ry="12" fill="url(#bgGrad)"/>
  <!-- Subtle border accent -->
  <rect x="4" y="4" width="56" height="56" rx="12" ry="12" fill="none" stroke="#475569" stroke-width="1" opacity="0.5"/>
  <!-- Snowflake/Archive design: Central document with snowflake accent -->
  <!-- Document base -->
  <rect x="18" y="14" width="28" height="36" rx="3" fill="url(#snowGrad)" opacity="0.95"/>
  <rect x="18" y="14" width="28" height="36" rx="3" fill="none" stroke="#94a3b8" stroke-width="0.5"/>
  <!-- Document lines -->
  <line x1="23" y1="24" x2="41" y2="24" stroke="#94a3b8" stroke-width="2" stroke-linecap="round"/>
  <line x1="23" y1="32" x2="37" y2="32" stroke="#cbd5e1" stroke-width="2" stroke-linecap="round"/>
  <line x1="23" y1="40" x2="39" y2="40" stroke="#cbd5e1" stroke-width="2" stroke-linecap="round"/>
  <!-- Snowflake accent (top right) -->
  <g transform="translate(44, 12)">
    <circle cx="0" cy="0" r="8" fill="url(#accentGrad)" opacity="0.9"/>
    <!-- Snowflake arms -->
    <line x1="0" y1="-5" x2="0" y2="5" stroke="white" stroke-width="1.5" stroke-linecap="round"/>
    <line x1="-5" y1="0" x2="5" y2="0" stroke="white" stroke-width="1.5" stroke-linecap="round"/>
    <line x1="-3.5" y1="-3.5" x2="3.5" y2="3.5" stroke="white" stroke-width="1" stroke-linecap="round"/>
    <line x1="3.5" y1="-3.5" x2="-3.5" y2="3.5" stroke="white" stroke-width="1" stroke-linecap="round"/>
  </g>
</svg>
